<?xml version="1.0" encoding="UTF-8"?>
<svg id="Layer_2" data-name="Layer 2" xmlns="http://www.w3.org/2000/svg" viewBox="0 0 153.08 236.18">
  <defs>
    <style>
      .cls-1 {
        fill: #2c2b2a;
      }

      .cls-1, .cls-2 {
        stroke-width: 0px;
      }

      .cls-2 {
        fill: #005e9e;
      }
    </style>
  </defs>
  <g id="Layer_1-2" data-name="Layer 1">
    <path class="cls-2" d="M.52,163.36c-.09-1.46-.19-2.42-.19-3.37,0-46.18.09-92.36-.06-138.54C.22,7.6,11.2-.03,21.62,0c36.69.1,73.38.05,110.06.03,10.66,0,21.07,8.1,20.75,20.72-.3,12.04-.1,24.08-.02,36.13.01,1.93-.64,3.13-2.25,4.23-28.84,19.73-57.61,39.57-86.49,59.24-3.12,2.12-4.38,4.4-4.34,8.21.2,16.66.1,33.32.1,49.98,0,.79-.07,1.58-.13,3.02-1.18-1.03-1.97-1.67-2.71-2.38-9.97-9.62-19.98-19.2-29.85-28.93-2.12-2.09-3.73-2.09-6.07-.42-5.67,4.05-11.51,7.87-17.28,11.78-.79.53-1.63.99-2.88,1.74ZM106.88,33.95c-6.35.04-11.2,4.86-11.23,11.16-.03,5.99,5.28,11.12,11.43,11.05,6.13-.07,11.02-5.04,10.94-11.13-.08-6.54-4.69-11.12-11.14-11.08ZM76.4,33.98c-6.35.02-11.2,4.84-11.18,11.13.02,6.03,5.28,11.13,11.41,11.04,6.13-.08,10.95-5,10.9-11.11-.06-6.51-4.66-11.08-11.13-11.06ZM56.92,45.2c.02-6.56-4.5-11.2-10.93-11.23-6.47-.02-11.21,4.57-11.29,10.95-.08,6.13,4.95,11.19,11.17,11.22,6.07.03,11.04-4.89,11.06-10.95Z"/>
    <path class="cls-1" d="M21.19,171.54c.07,1.23.16,2.19.16,3.15.01,6.7.07,13.41-.03,20.11-.03,2.25.8,3,3.02,3,34.71-.04,69.41-.05,104.12.02,2.76,0,3.26-1.13,3.26-3.58-.06-31.7,0-63.41-.1-95.11,0-2.9.63-4.82,3.28-6.43,5.25-3.19,10.24-6.82,15.35-10.25.65-.44,1.37-.78,2.5-1.41.14,1.31.32,2.23.32,3.15.01,43.3.01,86.59,0,129.89,0,8.5-2.91,15.62-10.88,19.43-3.4,1.62-7.48,2.52-11.25,2.54-36.34.18-72.67.14-109.01.09-10.71-.02-17.88-5-21.11-14.6-.67-2-.74-4.27-.76-6.42-.08-9.06-.08-18.12.01-27.17.01-1.12.46-2.7,1.28-3.28,6.1-4.38,12.34-8.57,18.54-12.81.2-.14.51-.13,1.3-.31ZM62.84,214.96c-.16,7.45,5.9,13.9,13.2,14.04,7.51.15,14.03-6.02,14.22-13.44.19-7.44-5.86-13.64-13.35-13.92-6.56-.24-14.27,4.95-14.06,13.32Z"/>
  </g>
</svg>